<mxfile host="app.diagrams.net" modified="2023-03-25T13:20:12.629Z" agent="Mozilla/5.0 (Windows NT 10.0; Win64; x64) AppleWebKit/537.36 (KHTML, like Gecko) Chrome/111.0.0.0 Safari/537.36 Edg/111.0.1661.51" etag="TyV3BV7isUC8C8pVnhu9" version="21.1.0" type="github">
  <diagram id="YHd5vWv1i0zefCrvRhOq" name="Page-1">
    <mxGraphModel dx="1213" dy="673" grid="1" gridSize="10" guides="1" tooltips="1" connect="1" arrows="1" fold="1" page="1" pageScale="1" pageWidth="850" pageHeight="1100" math="0" shadow="0">
      <root>
        <mxCell id="0" />
        <mxCell id="1" parent="0" />
        <mxCell id="plff_lnRPeUwKku5NiHn-4" value="Review Paper Userflow" style="text;html=1;align=center;verticalAlign=middle;resizable=0;points=[];autosize=1;strokeColor=none;fillColor=none;" parent="1" vertex="1">
          <mxGeometry x="360" y="5" width="150" height="30" as="geometry" />
        </mxCell>
        <mxCell id="_ct1LYokM9xFlfNmUn7q-7" style="edgeStyle=orthogonalEdgeStyle;rounded=0;orthogonalLoop=1;jettySize=auto;html=1;exitX=1;exitY=0.5;exitDx=0;exitDy=0;entryX=0;entryY=0.5;entryDx=0;entryDy=0;" edge="1" parent="1" source="_ct1LYokM9xFlfNmUn7q-4" target="_ct1LYokM9xFlfNmUn7q-5">
          <mxGeometry relative="1" as="geometry" />
        </mxCell>
        <mxCell id="_ct1LYokM9xFlfNmUn7q-4" value="Start (Browser / Google search)" style="ellipse;whiteSpace=wrap;html=1;aspect=fixed;fillColor=#d5e8d4;strokeColor=#82b366;" vertex="1" parent="1">
          <mxGeometry x="20" y="120" width="100" height="100" as="geometry" />
        </mxCell>
        <mxCell id="_ct1LYokM9xFlfNmUn7q-11" style="edgeStyle=orthogonalEdgeStyle;rounded=0;orthogonalLoop=1;jettySize=auto;html=1;exitX=1;exitY=0.5;exitDx=0;exitDy=0;entryX=0;entryY=0.5;entryDx=0;entryDy=0;" edge="1" parent="1" source="_ct1LYokM9xFlfNmUn7q-5" target="_ct1LYokM9xFlfNmUn7q-10">
          <mxGeometry relative="1" as="geometry" />
        </mxCell>
        <mxCell id="_ct1LYokM9xFlfNmUn7q-5" value="Log in with the authorized user ID and password" style="rounded=1;whiteSpace=wrap;html=1;fillColor=#f5f5f5;fontColor=#333333;strokeColor=#666666;" vertex="1" parent="1">
          <mxGeometry x="180" y="129" width="150" height="80" as="geometry" />
        </mxCell>
        <mxCell id="_ct1LYokM9xFlfNmUn7q-21" style="edgeStyle=orthogonalEdgeStyle;rounded=0;orthogonalLoop=1;jettySize=auto;html=1;exitX=0;exitY=0.5;exitDx=0;exitDy=0;entryX=1;entryY=0.5;entryDx=0;entryDy=0;" edge="1" parent="1" source="_ct1LYokM9xFlfNmUn7q-9" target="_ct1LYokM9xFlfNmUn7q-17">
          <mxGeometry relative="1" as="geometry" />
        </mxCell>
        <mxCell id="_ct1LYokM9xFlfNmUn7q-9" value="Research paper&lt;br&gt;&amp;nbsp;Database" style="rounded=1;whiteSpace=wrap;html=1;fillColor=#fff2cc;strokeColor=#d6b656;" vertex="1" parent="1">
          <mxGeometry x="664" y="304" width="150" height="190" as="geometry" />
        </mxCell>
        <mxCell id="_ct1LYokM9xFlfNmUn7q-19" style="edgeStyle=orthogonalEdgeStyle;rounded=0;orthogonalLoop=1;jettySize=auto;html=1;exitX=1;exitY=0.5;exitDx=0;exitDy=0;entryX=0.5;entryY=0;entryDx=0;entryDy=0;" edge="1" parent="1" source="_ct1LYokM9xFlfNmUn7q-10" target="_ct1LYokM9xFlfNmUn7q-9">
          <mxGeometry relative="1" as="geometry" />
        </mxCell>
        <mxCell id="_ct1LYokM9xFlfNmUn7q-10" value="Submitting the original &lt;br&gt;review paper&amp;nbsp;" style="rounded=1;whiteSpace=wrap;html=1;fillColor=#f5f5f5;fontColor=#333333;strokeColor=#666666;" vertex="1" parent="1">
          <mxGeometry x="403" y="130" width="160" height="80" as="geometry" />
        </mxCell>
        <mxCell id="_ct1LYokM9xFlfNmUn7q-23" style="edgeStyle=orthogonalEdgeStyle;rounded=0;orthogonalLoop=1;jettySize=auto;html=1;exitX=1;exitY=0.5;exitDx=0;exitDy=0;" edge="1" parent="1" source="_ct1LYokM9xFlfNmUn7q-15" target="_ct1LYokM9xFlfNmUn7q-17">
          <mxGeometry relative="1" as="geometry" />
        </mxCell>
        <mxCell id="_ct1LYokM9xFlfNmUn7q-15" value="Reviewer Database" style="rounded=1;whiteSpace=wrap;html=1;fillColor=#ffe6cc;strokeColor=#d79b00;" vertex="1" parent="1">
          <mxGeometry x="194" y="304" width="140" height="190" as="geometry" />
        </mxCell>
        <mxCell id="_ct1LYokM9xFlfNmUn7q-24" style="edgeStyle=orthogonalEdgeStyle;rounded=0;orthogonalLoop=1;jettySize=auto;html=1;exitX=0.5;exitY=1;exitDx=0;exitDy=0;" edge="1" parent="1" source="_ct1LYokM9xFlfNmUn7q-17" target="_ct1LYokM9xFlfNmUn7q-18">
          <mxGeometry relative="1" as="geometry" />
        </mxCell>
        <mxCell id="_ct1LYokM9xFlfNmUn7q-17" value="Filter&lt;br&gt;&amp;nbsp;(matching of the correct&lt;br&gt;&amp;nbsp;paper to the reviewer)" style="shape=parallelogram;perimeter=parallelogramPerimeter;whiteSpace=wrap;html=1;fixedSize=1;fillColor=#f5f5f5;fontColor=#333333;strokeColor=#666666;" vertex="1" parent="1">
          <mxGeometry x="415" y="359" width="160" height="80" as="geometry" />
        </mxCell>
        <mxCell id="_ct1LYokM9xFlfNmUn7q-28" style="edgeStyle=orthogonalEdgeStyle;rounded=0;orthogonalLoop=1;jettySize=auto;html=1;exitX=0.5;exitY=1;exitDx=0;exitDy=0;entryX=1;entryY=0.5;entryDx=0;entryDy=0;" edge="1" parent="1" source="_ct1LYokM9xFlfNmUn7q-18" target="_ct1LYokM9xFlfNmUn7q-27">
          <mxGeometry relative="1" as="geometry" />
        </mxCell>
        <mxCell id="_ct1LYokM9xFlfNmUn7q-18" value="Review submitted by the reviewer" style="rounded=1;whiteSpace=wrap;html=1;fillColor=#d5e8d4;strokeColor=#82b366;" vertex="1" parent="1">
          <mxGeometry x="411" y="514" width="167" height="80" as="geometry" />
        </mxCell>
        <mxCell id="_ct1LYokM9xFlfNmUn7q-26" style="edgeStyle=orthogonalEdgeStyle;rounded=0;orthogonalLoop=1;jettySize=auto;html=1;exitX=1;exitY=0.5;exitDx=0;exitDy=0;entryX=0;entryY=0.5;entryDx=0;entryDy=0;" edge="1" parent="1" source="_ct1LYokM9xFlfNmUn7q-25" target="_ct1LYokM9xFlfNmUn7q-15">
          <mxGeometry relative="1" as="geometry" />
        </mxCell>
        <mxCell id="_ct1LYokM9xFlfNmUn7q-25" value="Reviewer registration and login" style="ellipse;whiteSpace=wrap;html=1;aspect=fixed;fillColor=#d5e8d4;strokeColor=#82b366;" vertex="1" parent="1">
          <mxGeometry x="15" y="503" width="110" height="110" as="geometry" />
        </mxCell>
        <mxCell id="_ct1LYokM9xFlfNmUn7q-32" style="edgeStyle=orthogonalEdgeStyle;rounded=0;orthogonalLoop=1;jettySize=auto;html=1;exitX=0;exitY=0.5;exitDx=0;exitDy=0;entryX=1;entryY=0.5;entryDx=0;entryDy=0;" edge="1" parent="1" source="_ct1LYokM9xFlfNmUn7q-27" target="_ct1LYokM9xFlfNmUn7q-31">
          <mxGeometry relative="1" as="geometry" />
        </mxCell>
        <mxCell id="_ct1LYokM9xFlfNmUn7q-27" value="Frontend display &lt;br&gt;screen for the submitted reviews" style="rounded=1;whiteSpace=wrap;html=1;fillColor=#fff2cc;strokeColor=#d6b656;" vertex="1" parent="1">
          <mxGeometry x="194" y="620" width="160" height="210" as="geometry" />
        </mxCell>
        <mxCell id="_ct1LYokM9xFlfNmUn7q-31" value="End" style="ellipse;whiteSpace=wrap;html=1;aspect=fixed;fillColor=#dae8fc;strokeColor=#6c8ebf;" vertex="1" parent="1">
          <mxGeometry x="30" y="685" width="80" height="80" as="geometry" />
        </mxCell>
      </root>
    </mxGraphModel>
  </diagram>
</mxfile>
